<svg width="69" height="91" viewBox="0 0 69 91" fill="none" xmlns="http://www.w3.org/2000/svg">
<path d="M57.1349 49.231C57.4087 49.049 57.6825 48.867 57.9563 48.685C58.3214 48.412 58.6865 48.139 59.0516 47.866C59.2341 47.684 59.4167 47.502 59.6905 47.229C59.873 47.047 60.0556 46.865 60.3294 46.683C60.6944 46.319 61.1508 45.864 61.5159 45.5C65.1667 41.496 67.1746 36.855 67.8135 34.58C68.6349 32.214 69 29.575 69 26.936C69 12.103 56.8611 0 41.9841 0H0V91H16.8849V16.835H41.9841C47.5516 16.835 52.1151 21.385 52.1151 26.936C52.1151 32.487 47.5516 37.037 41.9841 37.037H23.6389L31.2143 52.689H45.5436C50.0159 52.689 53.6667 51.415 56.5873 49.595C56.7698 49.504 56.9524 49.322 57.1349 49.231Z" fill="black"/>
</svg>
